<svg xmlns="http://www.w3.org/2000/svg" viewBox="0 0 283.581 283.581" width="512" height="512"><path d="M281.384 112.941l-76.8-76.811a7.497 7.497 0 0 0-10.608 0l-37.244 37.248-.009.01-17.398 17.398-12.519-12.519c-.027-.028-.051-.059-.078-.086L89.492 40.935a7.495 7.495 0 0 0-5.303-2.197h-.001c-1.989 0-3.896.79-5.304 2.197L2.197 117.622a7.5 7.5 0 0 0 0 10.606l37.244 37.249a7.497 7.497 0 0 0 10.608 0l7.436-7.436 7.292 7.292-5.004 5.004a7.5 7.5 0 0 0-.001 10.605l60.434 60.456a7.503 7.503 0 0 0 10.611-.001l5.001-5.005 11.058 11.059a7.502 7.502 0 0 0 10.608 0l28.128-28.129c.021-.021.044-.038.064-.058.021-.02.037-.043.059-.064l17.791-17.792.021-.02.02-.022 17.872-17.873a7.502 7.502 0 0 0-.001-10.608l-11.061-11.058 12.103-12.114 11.07 11.067a7.479 7.479 0 0 0 5.303 2.196 7.478 7.478 0 0 0 5.304-2.197l37.23-37.234a7.5 7.5 0 0 0-.003-10.604zm-263.277 9.985l66.081-66.081 26.632 26.638-5.016 5.016-53.627 53.63-.032.036-7.4 7.401-26.638-26.64zm107.401 102.56L75.681 175.64l4.984-4.986.021-.018.019-.02 4.974-4.975 49.832 49.833-10.003 10.012zm26.669 6.055l-5.76-5.76 5.003-5.007a7.5 7.5 0 0 0-.002-10.604l-60.437-60.438a7.5 7.5 0 0 0-10.608 0l-4.993 4.994-7.292-7.292 42.439-42.445 10.893-10.894 7.297 7.297-30.779 30.779a7.5 7.5 0 0 0 0 10.608l24.139 24.131a7.502 7.502 0 0 0 5.303 2.196h.002a7.504 7.504 0 0 0 5.303-2.198l30.759-30.774 31.013 31.011c.063.062.131.117.195.177l10.873 10.87-7.284 7.284-18.934-18.94A7.5 7.5 0 1 0 168.7 177.14l18.936 18.942-7.268 7.27-18.939-18.938a7.5 7.5 0 0 0-10.606.001 7.5 7.5 0 0 0 .001 10.607l18.938 18.936-17.585 17.583zm59.686-92.427l-12.099 12.109-2.572-2.572c-.059-.059-.123-.109-.184-.165l-28.265-28.263a7.497 7.497 0 0 0-10.608.001l-30.759 30.775-13.529-13.525 30.767-30.766.013-.011.012-.012 17.398-17.397 6.727 6.725 43.099 43.101zm26.986 5.757L181.595 87.63l-8.951-8.951 26.637-26.639 66.194 66.203-26.626 26.628z" fill="#008490"/></svg>