<svg xmlns="http://www.w3.org/2000/svg" viewBox="0 0 468.851 468.851" width="512" height="512"><path d="M465.709 80.878a16.336 16.336 0 0 0-11.67-6.624l-35.71-3.322-4.026-10.736a14.966 14.966 0 0 0-10.143-9.193l-46.517-12.405a14.921 14.921 0 0 0-9.798.752l-46.697 20.016a7.502 7.502 0 0 0-1.862 12.642l10.949 9.175-9.702 23.431c-12.648 30.546-42.172 50.969-75.215 52.032L105.454 160.5l-11.735-10.058c-8.886-7.616-12.117-20.105-8.042-31.077l3.287-8.853c3.202-8.619-.29-18.146-8.305-22.654a18.613 18.613 0 0 0-14.846-1.476 18.626 18.626 0 0 0-11.142 9.924l-1.981 4.32c-11.902 25.97-9.532 55.944 5.961 79.599-9.361 7.703-17.175 18.194-19.453 32.317-4.359 27.027-6.154 78.387-6.836 106.596-.134 5.533-3.485 10.578-8.539 12.851a29.434 29.434 0 0 0-16.986 22.043L.332 393.063a24.284 24.284 0 0 0 5.434 19.721 24.283 24.283 0 0 0 18.56 8.601h23.118c4 0 7.825-1.709 10.492-4.69a14.093 14.093 0 0 0 3.502-10.944 28.703 28.703 0 0 0-17.299-23.244c5.688-10.049 14.55-17.814 25.428-22.166 17.428-6.971 31.465-20.145 39.527-37.096l19.828-41.689c6.368-2.968 28.055-11.095 59.587-2.084 12.765 3.647 24.869 7.721 36.575 11.661 21.85 7.354 39.919 13.422 53.704 13.796 2.053 35.041 3.467 75.305.482 87.241-2.184 8.734-1.218 16.575 2.871 23.304 6.891 11.339 19.932 14.724 21.396 15.072a7.471 7.471 0 0 0 1.737.204h17.295c4.403 0 8.436-2.026 11.064-5.559 2.628-3.533 3.41-7.978 2.145-12.195-2.987-9.958-9.914-18.009-19.056-22.454l24.507-86.307a97.278 97.278 0 0 0 24.963-46.913l23.418-108.267c9.726-2.401 23.39-4.99 39.952-7.557 17.637-2.734 32.062-16.3 35.894-33.758l3.015-13.735a16.325 16.325 0 0 0-2.762-13.127zM342.69 57.881l-1.605 25.725c-.059.938-.642 1.379-1.12 1.585-.479.207-1.203.327-1.922-.275l-19.771-16.568 24.418-10.467zM66.327 106.878l1.981-4.32c.567-1.24 1.586-1.729 2.143-1.909s1.669-.383 2.855.284a3.556 3.556 0 0 1 1.597 4.358l-3.287 8.854c-6.254 16.835-1.294 36 12.342 47.688l3.317 2.843c-4.846 1.707-10.483 4.052-16.168 7.186a67.438 67.438 0 0 1-4.78-64.984zm387.494-16.087l-3.015 13.735c-2.516 11.457-11.976 20.358-23.541 22.151-20.047 3.108-35.526 6.156-46.01 9.058-6.107 1.692-12.852.859-18.506-2.281-9.917-5.509-16.102-9.213-16.162-9.25a7.5 7.5 0 0 0-10.29 2.574 7.499 7.499 0 0 0 2.573 10.289c.258.155 6.438 3.858 16.596 9.5 5.707 3.171 11.947 4.85 18.252 5.021l-22.185 102.566a82.333 82.333 0 0 1-22.3 40.895 7.505 7.505 0 0 0-1.911 3.254l-26.921 94.808a7.501 7.501 0 0 0 5.155 9.261l1.015.29c6.624 1.893 11.871 6.727 14.31 13.089h-14.55c-1.511-.483-5.11-1.823-8.187-4.422-4.619-3.904-5.992-8.835-4.32-15.52 5.98-23.923-2.345-126.588-3.314-138.216a7.499 7.499 0 0 0-8.33-6.828c-4.076.465-6.932 4.289-6.592 8.378.636 7.658 1.456 18.495 2.264 30.752-11.582-.729-29.354-6.708-47.982-12.977-11.315-3.809-24.141-8.125-37.239-11.867-23.159-6.617-42.044-5.116-54.833-2.155l5.57-11.71c1.764-3.709.443-8.301-3.211-10.175a7.5 7.5 0 0 0-10.201 3.45l-34.407 72.344a59.18 59.18 0 0 1-31.551 29.611c-16.383 6.553-29.232 19.093-36.184 35.311l-.897 2.095c-.512 1.196-.785 2.498-.664 3.793a7.512 7.512 0 0 0 5.241 6.51l5.511 1.722a13.702 13.702 0 0 1 9.375 10.54H24.597c-2.159 0-4.306-.632-6.003-1.967a9.326 9.326 0 0 1-3.462-8.889l6.504-39.03a14.463 14.463 0 0 1 8.346-10.831c10.284-4.627 17.106-14.898 17.38-26.167.541-22.404 2.272-77.443 6.648-104.57 4.65-28.832 44.722-38.308 49.655-39.367l122.139-3.927c38.92-1.251 73.693-25.307 88.592-61.286l7.895-19.068 6.124 5.132c4.902 4.101 11.596 5.082 17.474 2.556a16.77 16.77 0 0 0 10.169-14.431l1.894-30.34 42.31 11.261 2.134 5.689-7.2.48c-4.022.268-7.341 3.551-7.293 7.581a7.501 7.501 0 0 0 7.999 7.405 212.866 212.866 0 0 1 33.885.444l22.867 2.127c.491.046.785.317.946.537.157.22.326.583.221 1.065z" fill="#FFF"/></svg>