<svg xmlns="http://www.w3.org/2000/svg" viewBox="0 0 470 470" width="512" height="512"><g fill="#008490"><path d="M123.431 225.992c-9.486-9.485-23.904-11.096-35.074-4.845v-97.676a29.14 29.14 0 0 0-3.426-13.737 14.34 14.34 0 0 1 4.093-.596c7.903 0 14.333 6.429 14.333 14.333v72.109a7.5 7.5 0 0 0 15 0v-72.109c0-16.174-13.159-29.333-29.333-29.333a29.212 29.212 0 0 0-15.01 4.133 29.152 29.152 0 0 0-14.99-4.133c-16.174 0-29.333 13.158-29.333 29.339l.122 137.644c.005 6.281 2.331 15.148 5.409 20.625.05.09.103.178.157.266l86.394 139.901c1.794 3.271 3.411 9.494 3.411 13.162V462.5a7.5 7.5 0 0 0 15 0v-27.425c0-6.283-2.322-15.153-5.401-20.631a8.834 8.834 0 0 0-.157-.266l-86.392-139.9c-1.795-3.273-3.416-9.499-3.419-13.169l-.122-137.637c0-7.903 6.43-14.333 14.333-14.333s14.333 6.429 14.333 14.333v123.262c0 .176.014.349.026.522.129 7.336 2.979 14.633 8.565 20.219l67.177 67.176a7.5 7.5 0 0 0 10.606 0 7.5 7.5 0 0 0 0-10.606l-67.177-67.176c-5.588-5.588-5.588-14.681 0-20.269 5.588-5.588 14.681-5.588 20.27 0l82.656 82.656c9.226 9.226 17.021 28.044 17.021 41.092V462.5a7.5 7.5 0 0 0 15 0V360.347c0-16.982-9.406-39.691-21.415-51.699l-82.657-82.656zM410.976 94.139c-5.474 0-10.6 1.511-14.99 4.133a29.212 29.212 0 0 0-15.01-4.133c-16.174 0-29.333 13.158-29.333 29.333v72.109c0 4.142 3.357 7.5 7.5 7.5s7.5-3.358 7.5-7.5v-72.109c0-7.903 6.43-14.333 14.333-14.333 1.403 0 2.779.205 4.093.596a29.151 29.151 0 0 0-3.426 13.737v97.664a29.16 29.16 0 0 0-14.332-3.734c-7.835 0-15.201 3.051-20.741 8.591l-82.655 82.656c-12.009 12.008-21.415 34.717-21.415 51.699V462.5c0 4.142 3.357 7.5 7.5 7.5s7.5-3.358 7.5-7.5V360.347c0-13.048 7.795-31.866 17.021-41.092l82.656-82.656c2.706-2.707 6.306-4.198 10.134-4.198s7.428 1.491 10.134 4.198c2.708 2.707 4.198 6.306 4.198 10.135s-1.49 7.427-4.198 10.135l-67.176 67.176a7.5 7.5 0 0 0 10.607 10.606l67.175-67.176c5.541-5.54 8.592-12.906 8.592-20.741V123.471c0-7.903 6.43-14.333 14.333-14.333 7.902 0 14.332 6.429 14.332 14.326l-.121 137.643c-.004 3.672-1.625 9.898-3.42 13.169l-86.393 139.901a6.4 6.4 0 0 0-.157.266c-3.079 5.478-5.401 14.348-5.401 20.631V462.5c0 4.142 3.357 7.5 7.5 7.5s7.5-3.358 7.5-7.5v-27.425c0-3.668 1.617-9.89 3.411-13.162l86.393-139.901c.055-.087.106-.175.156-.265 3.079-5.475 5.405-14.342 5.411-20.626l.121-137.65c0-16.174-13.158-29.332-29.332-29.332z"/><path d="M230.793 59.003a7.5 7.5 0 0 0-7.5 7.5v79.843c0 12.171-9.902 22.073-22.073 22.073-12.171 0-22.072-9.901-22.073-22.072V67.423c0-29.396 22.686-52.423 51.646-52.423 28.478 0 51.647 23.523 51.647 52.436a7.5 7.5 0 0 0 7.5 7.5h36.174c.037 5.229.076 12.761.076 21.068 0 11.633-9.444 21.096-21.054 21.096h-14.381a7.5 7.5 0 0 0-7.5 7.5v125.599c0 4.142 3.357 7.5 7.5 7.5s7.5-3.358 7.5-7.5V132.101h6.881c19.88 0 36.054-16.193 36.054-36.096 0-15.623-.138-28.521-.139-28.65a7.501 7.501 0 0 0-7.5-7.419h-36.512c-1.632-15.179-8.205-29.215-18.918-40.126C265.579 7.035 248.771 0 230.793 0c-17.979 0-34.786 7.033-47.328 19.802-12.458 12.685-19.319 29.597-19.319 47.62v75.816l-28.255 28.255a7.5 7.5 0 0 0 0 10.606 7.474 7.474 0 0 0 5.303 2.197 7.474 7.474 0 0 0 5.303-2.197l20.807-20.807c5.76 13.016 18.79 22.125 33.915 22.125 20.442 0 37.073-16.631 37.073-37.073V66.503a7.5 7.5 0 0 0-7.499-7.5z"/></g></svg>