<?xml version="1.0" standalone="no"?>
<!DOCTYPE svg PUBLIC "-//W3C//DTD SVG 20010904//EN"
 "http://www.w3.org/TR/2001/REC-SVG-20010904/DTD/svg10.dtd">
<svg version="1.0" xmlns="http://www.w3.org/2000/svg"
 width="16.000000pt" height="16.000000pt" viewBox="0 0 16.000000 16.000000"
 preserveAspectRatio="xMidYMid meet">
<metadata>
Created by potrace 1.11, written by Peter Selinger 2001-2013
</metadata>
<g transform="translate(0.000000,16.000000) scale(0.002000,-0.002000)"
fill="#000000" stroke="none">
<path d="M3583 7860 c-68 -10 -124 -41 -191 -105 -35 -33 -73 -64 -85 -69 -39
-16 -133 -15 -178 1 -137 49 -311 -23 -379 -157 -45 -89 -118 -131 -234 -134
-89 -3 -141 -17 -199 -53 -70 -44 -115 -105 -141 -192 -30 -103 -96 -163 -205
-186 -163 -34 -260 -150 -274 -325 -9 -111 -64 -189 -165 -237 -49 -23 -99
-65 -137 -115 -33 -44 -53 -193 -33 -247 10 -26 12 -94 4 -126 -11 -46 -41
-87 -106 -145 -83 -74 -122 -145 -125 -233 -3 -62 13 -136 40 -189 10 -18 19
-60 21 -96 3 -66 -10 -104 -53 -156 -54 -65 -77 -127 -78 -206 0 -108 14 -152
71 -215 64 -71 80 -169 42 -255 -34 -76 -41 -107 -40 -165 3 -105 52 -188 156
-263 30 -23 54 -52 72 -88 24 -48 26 -61 18 -107 -15 -93 -9 -198 13 -247 29
-64 91 -123 167 -159 36 -18 79 -43 95 -57 46 -38 80 -106 87 -171 6 -59 38
-147 61 -171 7 -7 16 -19 20 -26 27 -43 137 -101 211 -111 76 -9 155 -72 187
-147 51 -121 65 -146 96 -177 19 -18 61 -46 94 -61 53 -25 70 -27 155 -26 52
1 109 -2 125 -7 53 -18 122 -69 147 -110 45 -75 125 -134 205 -151 55 -12 139
-8 190 9 101 35 198 14 273 -58 37 -35 130 -102 130 -93 0 3 12 1 28 -6 68
-27 198 -3 269 49 69 52 170 49 287 -7 93 -46 160 -56 234 -34 23 6 42 10 42
8 0 -11 99 59 129 91 51 54 105 78 181 79 36 0 79 -5 95 -11 74 -30 155 -21
251 28 53 27 68 41 113 110 82 124 127 149 272 153 52 2 103 7 114 11 64 24
95 44 140 90 43 44 55 64 73 129 34 116 104 184 208 199 140 22 252 141 269
288 17 153 57 219 164 274 141 71 208 200 179 344 -13 62 -16 123 -7 141 4 8
13 29 19 47 7 18 28 47 48 65 102 93 132 131 148 185 32 109 20 204 -34 286
-35 53 -36 132 -2 200 13 26 27 47 30 47 4 0 20 28 35 62 52 115 32 251 -49
343 -37 43 -54 82 -59 141 -4 43 1 63 26 115 27 56 31 75 31 149 0 107 -28
167 -106 232 -128 106 -153 156 -133 265 11 60 12 121 1 169 -11 54 -89 164
-115 164 -6 0 -11 4 -11 9 0 5 -24 19 -52 31 -107 46 -175 122 -184 208 -13
114 -46 184 -114 246 -42 38 -117 76 -150 76 -23 0 -128 55 -159 83 -28 27
-71 92 -71 109 0 22 -46 114 -71 142 -28 32 -102 79 -144 91 -16 5 -77 9 -135
10 -88 2 -112 6 -150 25 -43 22 -120 92 -120 109 0 19 -68 81 -115 105 -84 42
-153 48 -254 21 -131 -34 -208 -16 -295 70 -72 70 -123 90 -226 90 -81 0 -89
-3 -170 -44 -75 -39 -93 -44 -151 -45 -56 0 -77 6 -140 36 -100 50 -146 59
-226 48z m692 -765 c36 -5 234 -43 260 -49 144 -34 397 -134 515 -204 25 -14
47 -27 50 -27 11 0 206 -134 219 -149 7 -9 18 -16 23 -16 20 0 232 -204 317
-305 81 -96 176 -230 222 -311 52 -92 125 -245 139 -289 7 -22 16 -44 20 -50
4 -5 11 -23 15 -40 5 -16 10 -34 11 -40 25 -80 63 -219 68 -250 8 -53 15 -98
21 -137 23 -142 23 -434 1 -573 -3 -16 -7 -46 -10 -65 -14 -113 -80 -352 -122
-447 -8 -17 -14 -34 -14 -38 0 -26 -141 -284 -213 -390 -76 -112 -246 -312
-297 -351 -8 -7 -34 -29 -57 -50 -49 -46 -65 -60 -118 -99 -22 -16 -42 -32
-45 -35 -15 -15 -135 -92 -195 -125 -38 -22 -71 -43 -73 -47 -2 -4 -12 -8 -22
-8 -10 0 -25 -6 -32 -13 -20 -19 -260 -115 -328 -132 -8 -2 -53 -14 -100 -26
-47 -12 -92 -23 -100 -24 -8 -1 -31 -5 -50 -9 -19 -3 -48 -8 -65 -11 -145 -25
-499 -25 -630 0 -16 3 -55 10 -85 16 -30 6 -66 12 -80 15 -175 33 -469 153
-650 264 -57 36 -191 129 -200 139 -3 3 -23 20 -45 36 -85 63 -239 221 -348
356 -97 121 -259 402 -292 509 -1 3 -7 19 -14 35 -27 63 -76 222 -88 285 -8
40 -11 55 -13 55 -3 0 -10 42 -16 95 -3 30 -8 62 -11 70 -20 58 -20 460 1 570
3 14 7 41 10 60 9 62 35 173 56 245 12 39 23 77 25 85 9 32 32 90 38 96 4 4 7
13 7 21 0 14 88 200 137 288 41 75 137 209 216 303 247 296 562 518 927 653
103 38 287 87 353 94 27 3 52 7 56 9 4 3 34 7 66 11 32 3 60 7 63 9 6 7 432
-1 477 -9z"/>
<path d="M3966 6763 c-2 -3 -153 -14 -218 -16 -16 -1 -28 -5 -28 -10 0 -4 -3
-6 -8 -3 -6 4 -42 -2 -117 -18 -81 -17 -253 -73 -272 -89 -7 -5 -13 -7 -13 -4
0 3 -28 -9 -62 -26 -35 -17 -69 -32 -77 -33 -8 -2 -17 -7 -20 -11 -3 -5 -33
-24 -66 -42 -86 -48 -237 -163 -329 -251 -81 -78 -226 -251 -226 -269 0 -6 -4
-11 -8 -11 -12 0 -106 -164 -147 -255 -20 -44 -40 -87 -44 -96 -14 -24 -78
-246 -90 -309 -30 -159 -43 -400 -27 -520 2 -19 7 -58 10 -86 4 -28 9 -61 12
-75 2 -13 7 -35 9 -49 2 -14 11 -50 20 -80 9 -30 17 -62 20 -70 18 -75 102
-267 164 -375 74 -129 187 -272 301 -382 90 -87 102 -97 211 -176 239 -174
553 -293 854 -323 126 -13 359 -7 453 11 11 2 35 6 53 9 63 10 191 42 219 53
8 3 17 7 20 8 81 22 219 83 355 159 37 20 169 110 185 126 9 8 35 31 59 50 71
57 204 195 264 275 92 123 163 244 225 385 22 50 72 187 77 210 2 8 10 42 19
75 8 33 18 78 21 100 4 22 8 51 11 65 22 124 22 402 -1 550 -26 178 -90 373
-178 545 -29 55 -54 102 -57 105 -3 3 -17 23 -30 45 -13 22 -28 45 -32 50
-121 156 -149 187 -297 325 -72 67 -259 189 -371 242 -91 44 -153 72 -160 73
-3 1 -43 13 -89 28 -81 27 -154 46 -196 52 -32 5 -88 15 -118 21 -15 3 -65 8
-110 10 -45 2 -101 6 -125 7 -24 2 -44 1 -46 0z m-354 -746 c169 -84 272 -280
263 -501 -6 -138 -53 -249 -138 -328 -81 -74 -200 -81 -307 -20 -147 85 -248
275 -248 468 0 73 26 182 59 246 27 54 100 125 151 148 59 26 151 21 220 -13z
m968 16 c60 -22 113 -74 162 -155 50 -85 60 -121 62 -231 2 -75 -2 -102 -29
-181 -71 -212 -206 -335 -371 -338 -91 -2 -191 68 -243 171 -48 93 -68 280
-42 379 6 20 11 40 11 45 0 27 79 155 125 205 97 105 219 144 325 105z m-1632
-833 c31 -18 72 -49 90 -69 29 -32 100 -142 95 -148 -1 -2 4 -18 13 -38 8 -19
11 -35 8 -35 -4 0 -2 -6 3 -12 6 -7 10 -47 9 -88 -5 -207 -158 -308 -341 -225
-69 31 -161 134 -196 220 -56 136 -40 302 38 379 61 61 186 68 281 16z m2324
22 c33 -13 98 -78 98 -97 0 -8 4 -15 9 -15 27 0 34 -172 10 -258 -49 -176
-175 -293 -318 -295 -67 -1 -95 7 -139 40 -79 59 -110 154 -89 278 11 69 37
147 55 168 8 9 12 17 8 17 -7 0 37 53 79 93 31 30 92 65 135 78 32 9 117 4
152 -9z m-1142 -276 c138 -12 243 -52 350 -130 107 -78 162 -147 234 -294 59
-118 76 -176 80 -264 5 -92 -7 -158 -39 -223 -32 -66 -63 -98 -121 -129 -68
-34 -108 -38 -171 -16 -51 18 -174 94 -181 112 -2 4 -7 8 -12 8 -5 0 -30 13
-57 30 -44 27 -173 58 -173 41 0 -3 -28 -5 -62 -4 -54 2 -71 -3 -128 -34 -36
-19 -71 -40 -79 -46 -7 -6 -18 -12 -25 -13 -6 -1 -35 -16 -64 -33 -29 -17 -59
-31 -67 -31 -8 0 -16 -4 -20 -9 -3 -6 -26 -13 -52 -17 -152 -23 -295 131 -288
311 3 56 15 132 29 175 25 76 150 285 210 348 45 49 133 115 191 144 45 23
122 52 135 51 3 0 16 4 30 9 13 5 61 12 105 15 44 3 81 7 83 8 2 2 11 1 20 -1
9 -1 42 -5 72 -8z"/>
<path d="M1479 2789 c-30 -50 -62 -102 -71 -117 -10 -15 -21 -34 -25 -42 -22
-45 -429 -716 -438 -722 -5 -4 -6 -8 -1 -8 5 0 2 -8 -6 -17 -8 -10 -28 -40
-43 -68 -16 -27 -43 -72 -60 -100 -66 -104 -155 -257 -155 -266 0 -5 -4 -9
-10 -9 -5 0 -10 -4 -10 -8 0 -9 -96 -172 -136 -233 -31 -45 -31 -62 -1 -49 20
9 338 94 394 106 12 2 33 8 45 13 13 5 28 9 33 10 27 5 63 14 85 22 14 4 36
11 50 13 14 3 77 19 140 36 189 51 304 81 320 85 8 2 15 4 15 5 0 1 11 3 25 6
14 2 36 9 50 14 14 5 38 12 53 14 16 3 43 10 61 16 18 6 42 12 52 14 10 2 31
7 45 11 29 7 36 2 43 -38 2 -14 23 -93 45 -174 54 -202 93 -346 95 -358 1 -5
5 -16 9 -22 5 -7 6 -13 3 -13 -2 0 0 -15 5 -32 19 -66 109 -403 165 -617 19
-74 38 -141 43 -148 5 -10 13 -2 28 24 20 38 283 491 342 591 17 29 31 57 31
62 0 6 5 10 10 10 6 0 10 4 10 9 0 5 26 54 58 108 32 54 61 105 65 113 4 8 17
32 29 52 13 20 99 169 192 330 93 161 177 304 186 318 40 58 80 141 75 151 -4
5 -15 7 -25 4 -18 -6 -41 -11 -91 -20 -131 -24 -329 23 -432 103 -29 23 -117
112 -143 147 -20 25 -29 29 -90 31 -127 5 -231 42 -335 118 -79 58 -199 221
-199 270 0 15 -19 25 -60 32 -127 22 -298 145 -376 269 -16 25 -32 45 -35 45
-3 0 -30 -41 -60 -91z"/>
<path d="M6438 2812 c-76 -77 -167 -135 -250 -160 -48 -14 -59 -22 -68 -47 -6
-16 -10 -31 -10 -33 0 -1 -7 -17 -16 -35 -33 -67 -98 -153 -145 -192 -27 -22
-55 -45 -63 -52 -28 -24 -139 -72 -194 -84 -31 -7 -60 -14 -64 -15 -5 -1 -30
-2 -57 -3 -45 -1 -50 -4 -75 -41 -55 -84 -152 -165 -246 -208 -107 -49 -271
-64 -370 -35 l-50 15 -55 -48 c-45 -38 -54 -51 -49 -68 4 -12 11 -22 15 -24 5
-2 9 -8 9 -13 0 -5 18 -39 40 -75 22 -36 40 -70 40 -74 0 -4 7 -13 15 -20 9
-7 13 -15 11 -18 -3 -2 8 -24 24 -48 17 -23 30 -44 30 -47 0 -6 87 -156 100
-172 7 -8 9 -15 5 -15 -3 0 3 -12 14 -26 12 -15 21 -33 21 -40 0 -8 4 -14 9
-14 5 0 11 -8 15 -17 3 -10 14 -31 23 -48 51 -85 81 -141 80 -145 -1 -3 4 -12
11 -20 17 -20 62 -90 62 -96 0 -7 128 -232 151 -266 11 -15 19 -29 19 -32 0
-3 14 -29 31 -58 18 -29 43 -73 57 -98 14 -25 34 -58 44 -75 10 -16 22 -39 28
-50 5 -11 26 -47 45 -80 20 -33 39 -68 42 -77 3 -10 9 -18 14 -18 5 0 9 -6 9
-14 0 -7 6 -19 14 -26 12 -9 17 -5 25 27 5 21 22 83 36 138 14 55 33 125 41
155 18 66 14 51 48 185 15 61 31 117 34 125 3 8 6 20 7 25 2 6 11 39 20 75 9
36 19 72 21 80 2 8 11 42 20 75 9 33 18 67 20 75 2 8 13 49 24 90 12 41 23 86
26 100 2 14 9 36 14 50 5 14 18 61 30 105 11 44 22 85 25 92 3 8 29 4 92 -13
48 -14 97 -27 108 -29 70 -15 122 -30 133 -38 7 -6 15 -7 18 -4 3 3 18 1 33
-5 21 -8 199 -58 261 -72 8 -2 35 -10 60 -17 53 -15 46 -13 90 -23 19 -4 53
-14 75 -21 22 -7 57 -16 78 -19 21 -3 46 -10 55 -15 9 -5 20 -9 25 -10 4 -1 8
-1 10 -2 7 -2 35 -9 59 -14 15 -3 39 -10 53 -15 14 -5 25 -8 25 -5 0 2 19 -2
41 -11 23 -8 51 -16 63 -18 12 -3 47 -12 79 -20 32 -9 60 -16 63 -16 4 0 -8
25 -73 140 -8 14 -22 39 -32 55 -10 17 -28 48 -41 70 -12 22 -64 112 -115 200
-51 88 -102 176 -112 195 -94 166 -449 781 -464 802 -11 15 -19 30 -19 33 0 3
-10 22 -23 43 -13 20 -37 62 -54 92 -51 92 -68 120 -73 120 -3 -1 -35 -31 -72
-68z"/>
</g>
</svg>
